#!OML:ASF F:\VICON\USERDATA\INSTALL\rory3\rory3.ASF
:FULLY-SPECIFIED
:DEGREES
185
root -12.5389 17.51 -1.74792 -137.7 88.8997 -134.3
lowerback 13.6362 0.548186 -3.3218
upperback 0.664839 0.36711 1.44784
thorax -6.98603 0.330457 3.34656
lowerneck -16.1464 -9.51068 -13.7316
upperneck 29.4946 -12.8766 11.5276
head 14.62 -5.464 4.74235
rclavicle -4.63417e-015 7.95139e-016
rhumerus -41.311 -22.7504 -69.3689
rradius 33.0759
rwrist 8.5265
rhand -18.603 4.69897
rfingers 7.12502
rthumb 7.68838 -25.1413
lclavicle -4.63417e-015 7.95139e-016
lhumerus -35.9831 5.61701 77.0831
lradius 34.7628
lwrist -4.45222
lhand -16.6411 25.7503
lfingers 7.12502
lthumb 9.58163 55.5125
rfemur -2.46547 5.6668 0.841387
rtibia 28.1248
rfoot -1.10274 -5.03547
rtoes 19.9202
lfemur -3.19998 -9.69421 -12.4464
ltibia 25.6506
lfoot -17.1666 -5.91164
ltoes -8.08468
186
root -12.53 17.4941 -1.63823 -139.951 88.8456 -136.583
lowerback 13.5757 0.592103 -3.23825
upperback 0.622749 0.429836 1.33498
thorax -7.00075 0.356558 3.16637
lowerneck -16.1368 -9.55787 -13.5761
upperneck 29.4949 -13.0028 11.551
head 14.6279 -5.4962 4.70069
rclavicle 3.03147e-015 7.45443e-015
rhumerus -41.5275 -23.0577 -69.3713
rradius 33.0177
rwrist 8.55737
rhand -18.4494 4.85757
rfingers 7.12502
rthumb 7.83661 -24.9772
lclavicle 3.03147e-015 7.45443e-015
lhumerus -35.885 5.67817 76.7951
lradius 34.636
lwrist -4.59158
lhand -16.6803 25.7962
lfingers 7.12502
lthumb 9.54379 55.56
rfemur -1.91788 5.98513 0.787365
rtibia 27.4636
rfoot -1.45434 -3.88091
rtoes 14.7519
lfemur -3.20691 -9.9551 -12.0788
ltibia 25.653
lfoot -17.1902 -5.65091
ltoes -7.86224
187
root -12.5199 17.4756 -1.52541 -141.179 88.8606 -137.855
lowerback 13.4734 0.634752 -3.20654
upperback 0.579389 0.486197 1.25271
thorax -6.99321 0.381269 3.04965
lowerneck -16.1114 -9.54261 -13.5356
upperneck 29.4686 -13.0078 11.5974
head 14.612 -5.48858 4.71256
rclavicle -1.33248e-015 3.67752e-015
rhumerus -41.6982 -23.2356 -69.3416
rradius 32.9967
rwrist 8.65156
rhand -18.5741 4.80228
rfingers 7.12502
rthumb 7.71623 -25.0369
lclavicle -1.33248e-015 3.67752e-015
lhumerus -35.8637 5.65941 76.5511
lradius 34.6242
lwrist -4.75568
lhand -16.6675 25.9179
lfingers 7.12502
lthumb 9.5562 55.6812
rfemur -1.42697 6.35081 0.735947
rtibia 26.9064
rfoot -2.22476 -3.01256
rtoes 6.80459
lfemur -3.194 -10.3787 -11.7629
ltibia 25.6562
lfoot -17.2576 -5.00284
ltoes -10.0545
188
root -12.5102 17.4553 -1.40987 -135.79 88.8756 -132.442
lowerback 13.4223 0.663948 -3.24659
upperback 0.57263 0.529056 1.37276
thorax -6.97686 0.405367 3.1921
lowerneck -16.1384 -9.46948 -13.7098
upperneck 29.429 -12.8185 11.5312
head 14.5768 -5.43732 4.7498
rclavicle 5.8393e-016 -2.48481e-015
rhumerus -41.6861 -22.9664 -69.302
rradius 33.0113
rwrist 8.57206
rhand -18.7537 4.68241
rfingers 7.12502
rthumb 7.54288 -25.1631
lclavicle 5.8393e-016 -2.48481e-015
lhumerus -35.9308 6.0569 76.4806
lradius 34.6815
lwrist -4.78516
lhand -17.0632 26.0475
lfingers 7.12502
lthumb 9.17435 55.828
rfemur -0.919534 6.78323 0.855673
rtibia 26.4006
rfoot -3.34003 -2.2889
rtoes 1.12457
lfemur -3.06239 -10.7894 -11.3436
ltibia 25.6358
lfoot -17.3243 -4.38604
ltoes -11.807
189
root -12.5031 17.4399 -1.29216 -131.229 88.8234 -127.853
lowerback 13.408 0.728421 -3.17904
upperback 0.574886 0.628179 1.40798
thorax -6.9741 0.452129 3.17205
lowerneck -16.1557 -9.4247 -13.668
upperneck 29.3403 -12.7252 11.4366
head 14.512 -5.40653 4.71709
rclavicle 1.14301e-015 9.44227e-015
rhumerus -41.7434 -23.108 -69.2786
rradius 32.9752
rwrist 8.64923
rhand -18.7203 4.63102
rfingers 7.12502
rthumb 7.57514 -25.2133
lclavicle 1.14301e-015 9.44227e-015
lhumerus -35.8842 6.38715 76.3235
lradius 34.7047
lwrist -4.83763
lhand -17.3442 26.3844
lfingers 7.12502
lthumb 8.90323 56.1766
rfemur -0.461238 7.11467 1.08786
rtibia 25.9671
rfoot -4.43243 -1.45318
rtoes -2.58564
lfemur -2.94293 -10.8989 -10.8221
ltibia 25.5556
lfoot -17.3356 -4.18522
ltoes -12.442
190
root -12.4946 17.4267 -1.16909 -129.234 88.9036 -125.83
lowerback 13.3884 0.848726 -3.23881
upperback 0.572915 0.774631 1.35023
thorax -6.97691 0.524345 3.11616
lowerneck -16.2184 -9.45596 -13.6488
upperneck 29.3901 -12.7635 11.4061
head 14.5504 -5.42099 4.69328
rclavicle 7.3923e-016 4.77083e-015
rhumerus -41.8525 -23.4113 -69.2892
rradius 32.9117
rwrist 8.73846
rhand -18.6495 4.51857
rfingers 7.12502
rthumb 7.64342 -25.3233
lclavicle 7.3923e-016 4.77083e-015
lhumerus -35.796 5.99035 76.2513
lradius 34.7411
lwrist -4.39592
lhand -17.0553 26.482
lfingers 7.12502
lthumb 9.18202 56.2621
rfemur -0.0838427 7.31305 1.2122
rtibia 25.5353
rfoot -5.38245 -0.54695
rtoes -7.40896
lfemur -2.80565 -11.0548 -10.4582
ltibia 25.482
lfoot -17.378 -3.85292
ltoes -13.5262
191
root -12.4862 17.4053 -1.03971 -125.088 88.919 -121.66
lowerback 13.3093 0.913017 -3.27597
upperback 0.601329 0.854694 1.31787
thorax -6.90852 0.5624 3.08753
lowerneck -16.2741 -9.46295 -13.711
upperneck 29.4441 -12.7779 11.4842
head 14.6026 -5.42106 4.73491
rclavicle -6.05672e-016 -1.09332e-015
rhumerus -41.8286 -23.4265 -69.5107
rradius 32.8711
rwrist 8.70501
rhand -18.8048 4.4691
rfingers 7.12502
rthumb 7.49361 -25.3782
lclavicle -6.05672e-016 -1.09332e-015
lhumerus -35.7045 5.61846 76.1606
lradius 34.7787
lwrist -3.85504
lhand -16.996 26.2435
lfingers 7.12502
lthumb 9.23924 56.021
rfemur 0.273923 7.37559 1.44642
rtibia 25.0933
rfoot -6.24337 0.0158589
rtoes -11.5617
lfemur -2.69655 -11.23 -10.0199
ltibia 25.4287
lfoot -17.462 -3.13529
ltoes -16.6278
